<svg
   version="1.1"
   id="svg75"
   width="1365.3333"
   height="1365.3333"
   viewBox="0 0 1365.3333 1365.3333"
   sodipodi:docname="japan-denim-logo"
   inkscape:version="1.2.2 (732a01da63, 2022-12-09, custom)"
   xmlns:inkscape="http://www.inkscape.org/namespaces/inkscape"
   xmlns:sodipodi="http://sodipodi.sourceforge.net/DTD/sodipodi-0.dtd"
   xmlns="http://www.w3.org/2000/svg"
   xmlns:svg="http://www.w3.org/2000/svg">
  <defs
     id="defs79">
    <rect
       x="166.19117"
       y="1187.01"
       width="1085.0572"
       height="162.87677"
       id="rect267" />
    <rect
       x="46.628426"
       y="1165.8066"
       width="1295.705"
       height="187.6563"
       id="rect261" />
    <rect
       x="798.95443"
       y="1312.3817"
       width="6.4805313"
       height="49.114228"
       id="rect255" />
    <rect
       x="83.043255"
       y="1253.7081"
       width="1159.483"
       height="114.74814"
       id="rect249" />
  </defs>
  <sodipodi:namedview
     id="namedview77"
     pagecolor="#ffffff"
     bordercolor="#000000"
     borderopacity="0.25"
     inkscape:showpageshadow="2"
     inkscape:pageopacity="0.0"
     inkscape:pagecheckerboard="0"
     inkscape:deskcolor="#d1d1d1"
     showgrid="false"
     inkscape:zoom="0.44785584"
     inkscape:cx="425.36009"
     inkscape:cy="691.0706"
     inkscape:window-width="1846"
     inkscape:window-height="1016"
     inkscape:window-x="0"
     inkscape:window-y="0"
     inkscape:window-maximized="1"
     inkscape:current-layer="g81" />
  <g
     inkscape:groupmode="layer"
     inkscape:label="Image"
     id="g81">
    <path
       style="fill:#b62d4d;stroke:none;stroke-width:1.23892"
       d="M 362.69888,132.97826 C 325.4221,156.77813 288.67006,178.89658 254.60104,207.3711 180.22388,269.53407 120.44708,352.91552 85.387756,442.77535 59.475416,509.19569 45.102456,579.00089 42.232169,650.39657 33.20972,874.8138 154.37531,1095.837 349.51523,1214.7881 c 72.09228,43.9449 152.24351,72.3053 235.1523,86.7669 74.88877,13.0616 153.22948,10.7241 227.23256,-3.7143 76.71984,-14.9636 150.17679,-44.4921 215.31881,-86.3901 74.6729,-48.0337 139.1632,-111.6355 186.7481,-186.0033 114.6444,-179.17383 123.9139,-413.44997 28.7976,-605.75463 C 1158.4556,249.23818 994.66738,118.74886 807.48389,75.289128 723.56002,55.803875 637.10957,54.324988 552.76997,68.081102 489.22368,78.445437 417.00001,98.308846 362.69888,132.97826 m 334.39659,-10.24679 c 12.50762,2.15628 25.28129,8.80954 35.48902,16.28737 3.51505,2.57565 9.92712,6.4916 8.42832,11.12545 l 0.55016,1.11231 3.91312,-0.45832 1.12102,-0.52355 c 46.15797,44.88824 76.68809,100.89416 90.22875,163.24783 3.78964,17.44621 2.75365,56.50056 27.65042,55.5489 -1.98881,-20.80531 3.33211,-43.67174 3.71712,-64.7217 0.84361,-46.16132 -2.53951,-92.62704 -12.38824,-137.98589 -4.00386,-18.44294 -7.53765,-38.424 -15.63661,-55.68279 15.80331,3.21179 29.97218,32.96589 37.9589,45.25743 35.84446,55.17249 45.60325,129.35097 41.40406,192.8971 -1.111,16.8007 -3.79509,33.4118 -7.11535,49.87778 -2.43784,12.08985 -6.68007,19.40163 3.00555,28.71985 14.30516,-13.60259 21.51524,-40.00362 27.8041,-58.17092 15.43787,-44.59616 21.52337,-94.5106 22.01377,-141.72963 0.2392,-22.97689 -4.9589,-49.20769 -1.9769,-71.64719 15.257,9.97499 24.9469,40.72555 30.0051,57.1877 19.00472,61.84744 12.46502,127.64777 -8.3862,187.39669 -5.5381,15.86825 -12.0472,31.47253 -19.8385,46.37892 -7.386,14.12976 -15.9027,20.85683 -8.1525,36.52592 13.2909,-9.26082 24.2352,-25.5152 33.3271,-38.63703 25.08482,-36.20189 43.00662,-76.96447 55.35802,-119.16888 4.3997,-15.03401 8.756,-30.15314 12.2595,-45.43402 1.943,-8.47259 2.4093,-18.77901 8.0132,-25.65056 22.3783,64.5809 9.111,140.73104 -24.7644,198.2363 -11.0771,18.80577 -23.8914,36.62221 -38.8107,52.66004 -6.62512,7.12255 -19.66112,15.07164 -23.67712,23.78122 -2.0877,4.52823 1.5448,9.59037 3.5396,13.6236 38.06032,-24.07412 74.91172,-52.73485 102.66652,-88.16412 15.5054,-19.79359 23.8078,-47.26196 40.9103,-65.15467 12.1095,84.07848 -59.4568,154.00559 -124.3417,194.99769 l 7.6817,18.32043 c 28.6412,-9.21397 57.3588,-24.30769 81.1863,-42.31378 8.8758,-6.70719 22.6676,-26.34401 33.8284,-26.46426 l -2.7715,-2.81336 8.4384,-8.04881 c 0.5162,41.88817 -41.4294,80.25352 -74.5724,100.32503 -10.2066,6.18131 -34.8274,12.55915 -41.1348,22.21564 -3.8382,5.87712 2.0161,26.90357 8.9303,29.187 19.2464,6.35917 47.8202,0.46009 67.0515,-3.26916 17.4156,-3.37696 33.3202,-11.63346 50.4523,-15.17372 l 0.5501,1.11232 c -19.0247,19.94337 -43.8821,33.62713 -70.3679,41.8673 -9.6761,3.01023 -19.3797,5.66357 -29.3507,7.61748 -3.6273,0.7096 -9.0477,0.90241 -10.9795,4.53496 -1.3892,2.61229 -0.8029,6.11074 -0.6761,8.95028 0.823,18.53188 11.2417,13.84803 22.465,25.10859 -5.827,2.7214 -18.1535,4.99909 -22.1978,9.62235 -4.7998,5.4841 -3.4869,17.89248 -4.5586,24.78194 -2.8124,18.0979 -6.5196,36.40676 -12.4492,53.7381 -5.0558,14.77899 -8.9704,36.77787 -28.20612,37.81992 l -1.7125,4.90761 -2.2006,-4.44932 -1.1417,3.27175 -1.6712,-0.58878 1.6918,-2.15942 -0.55,-1.11224 -3.363,1.57063 -0.5502,-1.11233 0.6121,-7.13217 1.121,-0.52355 3.9132,-0.45831 -0.5502,-1.11232 -6.1344,-1.24271 -2.2626,3.79528 -0.5502,-1.11233 -0.5502,-1.11234 3.363,-1.57061 -18.3414,-11.97277 -8.41762,5.30067 -0.50885,-6.60864 6.11377,3.99093 1.121,-0.52355 -2.7715,-2.81335 -4.97211,-7.26266 -5.58424,-0.13039 5.03408,-0.98184 -9.47667,-2.4203 -1.71251,4.90753 -0.55016,-1.11233 1.69179,-2.15942 -3.89243,-2.2898 -0.0414,5.4963 -1.14163,3.27175 2.81283,-2.68296 1.65048,3.3369 3.93386,-3.20641 0.55005,1.11223 2.15933,9.94553 1.12103,-0.52355 -1.10032,-2.22455 1.12092,-0.52355 3.87184,5.03801 -2.24196,1.04708 4.44262,3.40214 0.5914,-4.38398 4.422,6.15024 5.0341,-0.98184 c 2.1891,5.68968 5.6143,9.73823 2.118,15.44193 l -3.3423,-1.17757 4.4426,3.40214 1.1211,-0.52355 2.2626,-3.79519 4.4425,3.40204 -2.2005,-4.44913 1.1209,-0.52355 1.6298,6.08501 -5.5843,-0.13049 1.0798,4.97287 5.0546,-3.73015 0.5503,1.11242 -0.041,5.49632 -1.1209,0.52354 -2.7715,-2.81344 -5.0754,6.47824 -3.8719,-5.0381 3.8925,2.2899 1.7125,-4.90761 -6.7466,5.88945 -3.8511,-7.78611 2.7921,0.0652 -2.7715,-2.81344 3.9131,-0.45821 -7.276,2.02884 2.2212,1.70112 0.5502,1.11233 -1.1209,0.52353 -1.1003,-2.22457 -1.1211,0.52356 1.6505,3.3368 -1.121,0.52354 -5.58423,-0.13039 c -1.21914,-4.55165 -9.07945,0.82966 -8.94723,1.44015 l -1.12103,0.52354 c -0.78649,-3.02148 -0.73951,-3.18035 2.26267,-3.79519 l -3.89244,-2.28981 4.48402,-2.09418 -5.03418,0.98185 -8.37635,-0.19564 -4.99287,-4.51446 -0.55016,-1.11233 c 1.93728,-2.86284 0.96145,-3.22037 -2.20064,-4.44922 l 6.62264,10.59956 -3.89244,-2.2899 -1.12103,0.52354 0.50884,6.60864 3.93375,-3.20651 3.89255,2.28991 -2.22135,-1.70112 1.12103,-0.52354 2.77141,2.81344 -7.27603,2.02893 11.12715,5.75719 0.52956,3.86043 1.69179,-2.15941 c 8.08258,13.04089 28.64167,13.21824 41.18717,19.10315 -43.28676,57.77506 -102.00501,114.89799 -175.26653,133.88789 l -3.28034,-9.422 c 11.18456,-2.6138 11.13702,-24.5135 21.58785,-31.6824 12.9447,-8.87867 25.04208,5.6391 37.88643,-4.31 l 8.84394,12.3007 c 8.23218,-20.95639 -16.59771,-19.23638 -27.84228,-26.76523 -10.50107,-7.03016 -11.52249,-17.14422 -11.95532,-28.58754 l 1.12099,-0.52359 6.66394,5.10327 2.24197,-1.04708 c 0.042,-11.61047 1.11651,-19.98683 -4.23598,-30.88379 l 1.12098,-0.52359 12.79837,6.34599 c -4.49869,-13.32774 -8.75892,-23.0095 -18.176,-33.95798 l 16.71151,5.88767 -30.97437,-40.30398 19.54495,0.45654 c -9.47014,-13.69504 -23.01041,-12.06914 -35.03212,-20.60853 l 14.5935,-9.55422 c -11.81715,-6.55227 -22.81571,-6.17096 -35.70628,-5.23188 3.95044,-8.54065 11.43206,-12.20189 19.66895,-16.0324 33.38136,-15.52467 74.64102,8.65196 95.80563,34.67192 l 3.3836,-4.31883 1.65046,3.33689 -3.91308,0.4584 13.26583,18.45082 1.12097,-0.52355 -1.65046,-3.33689 2.7921,0.0652 -2.77141,-2.81334 5.07539,-6.47825 -3.36299,1.57062 -0.4881,-9.35674 -5.03413,0.98185 -0.55017,-1.11233 c 4.62801,-0.97152 9.44346,-0.42859 11.20992,-5.23544 l -5.60499,2.61772 -0.55011,-1.11223 5.03407,-0.98194 -1.65048,-3.33689 c 3.24101,-1.4796 4.06183,-2.03535 2.83343,-5.4311 l 0.59158,-4.38402 -4.48402,2.09418 -0.55016,-1.1123 0.59147,-4.38402 5.03419,-0.98186 -2.18004,-7.19739 -3.91315,0.45832 -0.0621,8.24448 -6.72594,3.14126 -2.20066,-4.44924 3.34231,1.17753 3.36296,-1.57063 -8.35575,-2.94382 -0.59148,4.38401 -2.17999,-7.19738 2.26265,-3.79526 -2.81281,2.68294 -0.55016,-1.1123 3.93377,-3.20649 -0.55015,-1.1123 -3.91311,0.45831 2.2833,-6.5434 -2.77148,-2.81337 4.46329,0.65397 0.61215,-7.13217 1.62983,6.08509 1.12097,-0.52355 2.81281,-2.68292 -2.7508,-5.56155 1.12099,-0.52355 4.97211,7.26261 2.81279,-2.68294 0.55017,1.11232 3.30096,6.67384 5.05478,-3.73002 -2.77151,-2.81338 -2.26256,3.79524 0.59148,-4.384 c -2.99248,0.73215 -5.1662,-3.95559 -8.88527,-6.80429 -8.63477,-6.61317 -19.61474,-6.62393 -14.95767,-16.29152 l -6.11377,-3.9909 4.46328,0.65399 0.57082,-1.63587 -4.44261,-3.40213 1.12099,-0.52354 3.91312,-0.45833 -6.0931,-6.73907 1.12099,-0.52354 4.42195,6.15031 4.50461,-4.84235 -0.0207,2.74817 1.121,-0.52354 7.88824,-9.16112 35.25941,-9.62123 -20.54191,-16.42195 -1.12104,0.52354 -2.26266,3.79525 -1.60917,-8.83325 5.05478,-3.73001 3.87184,5.038 -1.12103,0.52353 -1.12093,0.52355 -1.65048,-3.33692 -2.81283,2.68293 11.18918,-2.48728 5.01347,1.76629 -7.78487,-4.57967 7.23471,3.46736 1.12103,-0.52353 -2.77151,-2.81339 0.0207,-2.74815 3.38359,-4.31879 -6.72598,3.14126 1.14175,-3.27171 -0.55016,-1.1123 -5.03418,0.98186 -0.55017,-1.11231 44.10335,2.67939 c -6.2401,-15.55958 -23.28194,-11.90673 -38.43638,-13.54157 l 1.16235,-6.01986 -3.32167,-3.9257 16.89746,-18.8458 51.40014,-2.09771 c -1.0595,-4.68369 -2.3879,-14.0178 -6.9308,-16.71309 -7.4898,-4.44638 -31.6764,3.52099 -40.45296,4.61171 l -1.07961,-4.97278 -1.12103,0.52355 0.52955,3.86048 -13.41042,0.78615 -0.52967,-3.86043 -4.4632,-0.65399 c 13.44705,-2.74898 15.12642,-10.37683 3.48693,-18.05958 l 6.72598,-3.14128 -4.40128,-8.89847 2.26266,-3.79524 c 17.35475,-1.54116 38.50935,-5.82085 54.27485,-13.02512 l -7.7023,-15.57231 -36.40106,12.8929 0.0414,-5.4963 -4.48402,2.09418 2.77151,2.81338 -6.1551,1.50542 -2.20064,-4.44922 -2.26267,3.79524 -1.67109,-0.5888 -0.55016,-1.1123 0.57077,-1.63583 c 2.97863,-2.3058 2.40503,-3.94255 0.61218,-7.13216 l 5.03408,-0.98187 -3.91304,0.45831 5.01336,1.7663 -0.48814,-9.35679 -9.47667,-2.42028 3.89244,2.28982 -15.63178,-0.91486 8.96783,-4.18833 1.65048,3.33692 3.4043,-7.06696 c -1.94611,0.47624 -17.99855,0.90936 -13.45185,6.28251 l -4.48391,2.09418 6.19642,-7.00173 -0.55016,-1.11232 -6.13439,-1.24274 c 5.77107,-2.57755 23.11143,-12.00436 27.9833,-7.59226 l -5.60495,2.61775 2.77152,2.81336 8.41777,-5.30069 -4.44271,-3.40211 c 11.30198,-8.78511 23.49018,-7.60106 19.73098,-24.27689 l -2.8128,2.68294 -3.8717,-5.03803 1.1209,-0.52351 12.2689,2.48548 -4.4633,-0.654 -5.5223,-8.3749 3.9339,-3.20649 -0.5502,-1.11231 -6.1552,1.50544 -1.1209,0.52351 1.6297,6.08509 -5.03408,0.98188 3.32168,3.92567 -5.03418,0.98188 1.07961,4.97278 3.91327,-0.45835 0.5502,1.1123 -5.5844,-0.13044 -1.12103,0.52356 1.65059,3.33693 -1.12103,0.52356 -2.77141,-2.81342 -1.12103,0.52356 2.77152,2.81338 -12.9018,7.39485 -4.99276,-4.51447 6.70527,-0.39307 -7.25543,-0.71924 -1.65048,-3.33692 0.59147,-4.38399 -1.7125,4.90755 -1.12093,0.52356 -1.07972,-4.97279 -3.89243,-2.28986 3.89243,2.28986 0.61219,-7.13216 6.70527,-0.39314 -2.77141,-2.81337 5.03407,-0.98186 -0.55016,-1.11232 -6.1551,1.50544 0.59147,-4.38404 -5.58423,-0.13044 -0.55016,-1.11231 8.35564,2.94386 5.05489,-3.73006 c 1.11526,4.16336 2.82155,1.48643 1.12103,-0.52355 l 5.05468,-3.73 -2.7508,-5.56155 -7.84691,3.66482 -0.55016,-1.11231 c 3.69143,-1.72408 -0.10573,-1.96776 -2.22135,-1.70107 l -0.55001,-1.11232 c 4.61734,-2.15649 10.07055,-4.27202 7.31745,-7.52528 l 4.48403,-2.09419 -0.55017,-1.11231 -3.91315,0.45832 -0.55016,-1.11231 5.03408,-0.98188 -0.55016,-1.11231 -2.79212,-0.0651 8.98854,-6.9365 1.14163,-3.27174 -3.87183,-5.03797 -1.12093,0.52355 -0.0207,2.74813 -9.47678,-2.42029 -10.72176,14.59227 -1.12092,0.52351 -1.10032,-2.22462 -1.12103,0.52356 -0.59148,4.38399 -1.12103,0.52355 -6.64328,-7.85133 8.3971,-2.55251 -0.55016,-1.1123 -5.56363,-2.87861 -1.71245,4.90756 -3.91312,0.45831 0.062,-8.24447 -3.91312,0.45831 1.16231,-6.01985 -3.91311,0.45831 0.59145,-4.38398 -5.01344,-1.7663 -1.12092,0.52351 4.42188,6.15033 -5.60489,2.6177 -3.85112,-7.78616 -1.12102,0.52356 3.30097,6.67385 -2.28323,6.54337 3.91312,-0.45832 -2.81279,2.68293 8.35569,2.94385 0.55016,1.11231 -2.79209,-0.0652 0.55016,1.11231 5.5842,0.13048 0.55016,1.1123 -9.00924,9.68467 1.14171,-3.27172 -1.07963,-4.9728 -13.38992,-1.96192 -1.12092,0.52351 2.20064,4.44924 -5.01344,-1.76631 2.8128,-2.68293 -0.55016,-1.11231 -6.15515,1.50545 c 1.05584,-12.65484 19.20941,-30.76047 26.33897,-41.60334 3.83126,-5.82728 9.80258,-12.90735 4.27903,-19.25108 l -20.2811,23.16459 0.52946,3.86048 -5.01344,-1.76629 -1.12101,0.52356 1.10032,2.22461 -2.24193,1.04706 -0.50887,-6.6086 -0.59145,4.38399 -3.91312,0.45831 4.44258,3.40217 -1.12101,0.52355 -2.77141,-2.8134 -5.07542,6.47818 -0.93506,-24.20987 -8.39709,2.55251 c -1.05781,-3.49186 -1.73677,-11.46012 -5.52221,-8.37496 l 4.52526,-7.59049 -4.48396,2.09419 -0.52948,-3.86048 -3.36295,1.57063 -2.83349,5.43111 -1.62978,-6.0851 1.03823,10.46913 -1.12092,0.52352 -7.70225,-15.57232 5.05473,-3.73 -1.71247,4.90754 0.55016,1.11232 3.91311,-0.45831 3.32167,3.92566 1.12101,-0.52355 7.27607,-2.02895 c -0.27562,-12.22469 13.62308,-34.5609 7.37319,-45.76856 -1.69464,-3.04109 -6.97852,-4.49759 -9.77277,-6.51164 l -1.12092,0.52351 c 0.68684,13.82634 -0.13354,34.02397 -5.93562,46.58828 l -3.85113,-7.78616 -4.48387,2.09415 3.34226,1.17755 0.55016,1.1123 -5.01344,-1.7663 -2.24203,1.04712 -0.61214,7.13216 -3.32157,-3.92572 3.91312,-0.45832 -1.07973,-4.97275 -3.93371,3.20646 -0.55017,-1.11231 0.0206,-2.74812 c 3.38988,-1.5832 0.90573,-2.71377 -1.65048,-3.33693 l -5.48092,-13.87126 -4.48397,2.09419 -0.55017,-1.11231 1.71248,-4.90753 -2.24194,1.04706 c -3.63201,-16.50521 11.62217,-55.46327 -7.35093,-62.29103 l -0.14468,19.23712 -2.77149,-2.81336 -2.8128,2.68293 -0.55016,-1.11231 -0.55016,-1.11231 2.79219,0.0652 -0.55016,-1.11231 -4.46337,-0.65393 -0.0413,5.49629 3.87183,5.03798 1.12091,-0.52352 -1.07962,-4.97278 1.12102,-0.52355 4.3599,14.3948 -2.7921,-0.0652 -1.12102,0.52356 4.91016,15.50706 -2.24193,1.04707 2.22125,1.70111 -3.40425,7.06692 2.22134,1.70107 -0.57086,1.63585 -3.91312,0.45833 1.07963,4.97278 -4.48394,2.09417 0.0207,-2.74816 -0.0413,5.49631 -7.27608,2.02896 -0.61215,7.13217 0.55015,1.11231 6.72593,-3.14126 0.4675,12.10494 -4.48395,2.09418 2.75081,5.56154 -1.12099,0.52355 -2.20065,-4.44925 -3.38361,4.3188 -6.64327,-7.85139 -0.55017,-1.1123 1.14166,-3.2717 -3.38363,4.31879 2.83347,-5.4311 -5.48095,-13.87124 -2.77147,-2.81337 -1.12099,0.52354 -0.0413,5.49633 -10.5564,-7.39306 3.91312,-0.45833 -2.77146,-2.81338 5.5636,2.8786 -2.26262,3.79525 c 3.55948,-1.63362 7.95769,-4.36147 2.28329,-6.54341 l -0.55016,-1.1123 -2.17998,-7.1974 2.79213,0.0652 -0.55016,-1.11231 -3.89246,-2.28984 2.24198,-1.04708 -3.3423,-1.17753 -0.55016,-1.11231 c 1.48546,-7.40038 -4.5236,-15.88066 -8.21109,-22.18093 l -5.6256,5.36588 9.88225,22.76969 0.55016,1.1123 -2.85413,8.17926 c 10.04265,7.15513 0.98782,27.28795 -5.28209,33.95979 l -2.20065,-4.44925 c -4.65648,1.49424 -7.78412,-6.54218 -10.53571,-10.1412 l -6.82925,16.88205 -3.72715,-24.27511 5.03412,-0.98187 c -6.10232,-4.62062 -7.84262,-13.98961 -11.67383,-20.56369 -7.43635,-12.75536 -16.70485,-25.18902 -28.12378,-34.78904 1.18437,21.35493 9.52095,42.8159 11.59768,64.41541 0.78164,8.1339 2.34144,20.03952 -2.23203,27.05827 l -24.71594,-55.55017 -1.12098,0.52354 c 4.99845,26.86214 1.96324,51.91713 4.50658,78.68124 3.8497,40.51199 20.49724,80.52802 -3.65066,118.3449 -19.06469,29.859 -53.5762,40.66035 -78.76153,63.95609 -13.54746,12.52853 -25.13829,28.46597 -31.02877,45.96529 -1.30083,3.86499 -1.95959,17.12168 -7.99109,16.37446 -12.6054,-1.55881 -19.37014,-24.4481 -21.35452,-34.18234 -3.41457,-16.74916 -3.87939,-33.66417 -11.01629,-49.62514 -8.86003,-19.81301 -24.40985,-31.7832 -40.38558,-45.49333 39.91283,-7.44442 98.51619,-33.59987 96.12332,-81.86309 -7.88855,21.83236 -24.54789,33.37287 -45.00476,42.927 1.85499,-9.59947 15.37274,-19.82198 20.08693,-29.13696 14.57854,-28.8099 7.17483,-55.11693 -8.642,-81.64081 l -1.12098,0.52353 c 13.2157,26.76381 13.16514,53.68505 -10.6055,73.41587 0.10422,-8.66404 4.76971,-16.92247 5.35461,-25.77811 1.19866,-18.13284 -5.18827,-35.26424 -13.1524,-51.366 l -1.12099,0.52355 c 11.54005,34.19274 -5.14718,70.53799 -37.50917,85.98088 l -0.55016,-1.1123 c 9.36725,-10.36123 15.50278,-22.33777 16.47127,-36.44703 -6.56766,18.19212 -17.57599,31.7557 -34.99377,40.84757 -18.28361,9.54281 -37.66111,13.26369 -51.37346,30.05093 -9.06231,11.09515 -14.14203,27.2094 -10.52373,41.44668 1.54168,6.06874 7.80293,12.20758 7.44504,18.43095 -0.87479,15.24989 -8.38585,28.4686 -7.38,44.52435 11.01624,-12.17476 42.22621,-44.95112 54.73691,-14.61018 1.33349,3.23441 1.85756,6.63186 1.84544,10.09215 -0.15597,43.25226 -32.72421,83.30387 -15.05942,127.52766 l 19.1188,-17.14473 c -1.22683,23.28753 -5.45404,45.16801 11.24342,64.58086 0.83003,-10.41059 1.6269,-21.00836 9.15383,-28.92176 4.54521,19.10475 7.52528,34.1303 22.53597,48.35276 l 1.12097,-0.52352 c -3.0965,-7.94006 -3.58169,-17.09833 0.18597,-24.73344 6.07606,21.48293 24.47891,30.17357 45.54718,33.49791 -6.13194,-7.88071 -11.00814,-14.38572 -12.10355,-24.47077 l 1.12105,-0.52358 c 13.93003,15.46109 27.17255,30.93245 48.88941,34.67546 l -7.70226,-15.57232 c 6.28535,0.85872 11.57718,5.64291 17.74827,7.5066 8.08863,2.44284 15.97755,2.02955 24.24781,2.07215 40.75789,0.21211 61.57135,53.69486 25.39377,76.45016 -16.89597,10.62685 -40.74916,-7.68001 -57.10869,1.71588 -11.76584,6.75624 -17.96149,17.816 -12.29066,30.94958 l 1.12095,-0.52349 c -0.67705,-8.3718 3.32518,-14.00364 10.19224,-18.45271 5.55128,7.85605 17.13969,4.87288 25.65866,4.44748 l 1.65049,3.33686 c -7.73215,6.15659 -26.33259,8.74244 -24.17353,20.8747 -10.69073,10.3222 -6.0731,21.0585 3.6858,29.7715 l 1.12104,-0.5235 c -3.89402,-7.8949 -6.85855,-15.1024 0.16528,-21.98523 l 8.67909,0.79359 9.05535,-9.57755 20.97057,-13.40061 c 3.49534,8.68492 -3.36365,12.21827 -6.058,19.79436 -5.11188,14.37534 -0.37982,29.41364 14.02117,35.36444 l -7.6816,-18.3204 c 12.436,-3.6269 6.15559,-17.47113 13.54673,-25.66201 12.64428,-14.01413 21.63224,-1.03744 35.98298,0 4.23746,0.30623 7.90214,-5.3666 11.88356,-3.54416 3.24782,1.48592 4.85666,6.95093 6.31347,9.89628 6.70574,-28.09605 -49.74508,-22.80698 -24.50198,-49.53766 2.63771,-2.7942 5.65749,-5.15072 8.73329,-7.45269 l 3.21828,17.66665 11.88405,-20.61222 5.48087,13.87124 c 6.24893,-17.9911 9.149,-34.50601 0.39267,-52.215 22.53257,-0.0734 56.79747,28.38329 70.59375,45.07754 l 1.12098,-0.52359 -7.68157,-18.3204 c 19.05532,4.28763 22.09809,23.91209 22.7526,40.03604 0.20727,5.11725 1.57563,13.95746 -2.54814,17.84566 -5.9924,5.64815 -19.10209,-1.41379 -25.98529,-2.61074 -16.06228,-2.7923 -27.15056,12.66856 -23.88149,27.04506 l 10.72168,-14.59227 10.00628,6.28084 c -15.50794,7.41533 -28.58435,27.79563 -15.96249,43.05563 l 4.15442,-19.4694 10.79351,-3.4266 24.41063,-11.9169 c 0.0137,7.7558 -5.59703,12.9286 -7.66413,20.1378 -2.35046,8.1932 -0.18384,19.3895 3.39974,27.0392 -24.7498,5.0988 -48.00686,13.3523 -73.47963,16.0464 -80.4575,8.5088 -164.5859,-8.8789 -233.93936,-51.8424 C 341.18258,925.75043 277.58748,754.13991 326.68939,595.5897 c 10.91384,-35.24267 30.13424,-67.09407 51.21836,-97.07193 23.36263,-33.21913 54.13591,-61.54957 88.15049,-84.03274 51.2419,-33.87132 110.92188,-55.09914 172.91702,-60.51986 25.09372,-2.19383 49.8529,1.40308 74.80834,0.5897 -10.86905,-47.59483 -49.9701,-87.72636 -88.21948,-116.26236 -15.52869,-11.58433 -36.67926,-20.08298 -49.72125,-34.28695 15.61224,-4.1299 36.54328,3.70174 51.31743,8.89491 45.36194,15.94294 84.55877,44.52801 113.65406,82.47537 8.05648,10.50769 16.15517,21.71178 22.29654,33.40281 3.73446,7.10672 6.68761,18.58205 12.74514,24.04378 3.79347,3.42051 9.7032,3.121 14.43622,2.96986 -3.65324,-53.71298 -16.64301,-108.65885 -42.98988,-156.55586 -9.82868,-17.86539 -20.67851,-35.3237 -32.9552,-51.70211 -5.05583,-6.74565 -15.9066,-16.65619 -17.25172,-24.80488 m 32.04984,21.08806 0.93044,0.0228 -0.93044,-0.0228 m 9.09599,3.51139 1.67119,0.58875 -1.67119,-0.58875 m -9.57998,11.32049 6.68451,2.35508 -6.68451,-2.35508 m 18.46525,-4.51621 1.67117,0.58875 -1.67117,-0.58875 m -8.98854,6.9365 1.62979,6.08509 3.36295,-1.57063 -0.55016,-1.11231 -2.7714,-2.81341 11.73934,-1.37495 c -4.19428,-5.74591 -8.31029,-1.85047 -13.41052,0.78621 m -7.29676,4.77711 1.10032,2.22463 1.67118,0.58874 3.9544,-5.95462 -6.7259,3.14125 m 66.70637,190.66473 2.20065,4.44925 1.12101,-0.52356 -3.32166,-3.92569 m -4.52526,7.59049 1.67117,0.58875 -1.67117,-0.58875 m -38.70504,22.18449 -0.57083,1.63585 0.57083,-1.63585 m 40.33483,-16.0994 1.67117,0.58876 -1.67117,-0.58876 m -38.13419,20.54862 1.07966,4.97277 -1.12099,0.52355 0.0413,-5.49632 m 39.23451,-18.324 1.67117,0.58875 -1.67117,-0.58875 m -0.40141,3.83928 0.74083,0.56592 -0.74083,-0.56592 m 2.62275,-2.13821 1.65048,3.33692 1.71248,-4.90755 -3.36296,1.57063 m -22.54372,26.95981 -0.59148,4.38402 2.81279,-2.68295 1.12098,-0.52355 -3.40428,7.06696 6.11376,3.9909 -6.15509,1.50542 c 2.99486,2.51734 4.30799,3.7772 7.80558,1.8315 l 0.50883,6.60863 6.74659,-5.88943 c -5.296,-7.86441 -3.79387,-15.99554 -5.57765,-24.78009 -0.46803,-2.30495 -1.16581,-7.03572 -4.27596,-7.3673 -5.70691,-0.60717 -9.58913,13.41698 -5.10407,15.85589 m 14.12604,-21.65919 3.34225,1.17755 -1.10032,-2.22461 -2.24193,1.04706 m -2.8129,2.68297 1.67119,0.58876 -1.67119,-0.58876 m -26.9243,15.31319 -1.14165,3.27171 1.14165,-3.27171 m 29.14565,-13.61213 2.20064,4.44924 1.12102,-0.52356 -3.32166,-3.92568 m -72.90546,39.52663 -0.57083,1.63586 0.57083,-1.63586 m 79.59007,-37.17158 1.67118,0.58876 -1.67118,-0.58876 m -64.46709,31.47783 0.52951,3.86046 -0.52951,-3.86046 m 60.53328,-28.27133 4.44269,3.40212 -4.44269,-3.40212 m 8.96794,-4.18837 1.67109,0.58879 -1.67109,-0.58879 m -58.52276,33.26532 0.93033,0.0228 -0.93033,-0.0228 m 34.94068,-16.77457 -0.57083,1.63584 0.57083,-1.63584 m 2.24197,-1.04709 -0.57083,1.63584 0.57083,-1.63584 m 20.1778,-9.4238 1.67108,0.58879 -1.67108,-0.58879 m -3.93381,3.20649 1.10033,2.22462 2.24193,-1.04707 -3.34226,-1.17755 m -74.39343,39.30828 0.55704,0.19717 c -0.46243,0.44051 -1.42356,0.20753 -0.55704,-0.19717 m 61.47108,-29.16529 -0.57084,1.63587 0.57084,-1.63587 m 16.43406,-6.76203 0.74084,0.56593 -0.74084,-0.56593 m -85.3851,40.33404 -0.57082,1.63583 0.57082,-1.63583 m 67.25922,-31.41261 -2.26264,3.79524 -0.55016,-1.11231 2.8128,-2.68293 m -61.10412,29.90719 -0.57082,1.63585 0.57082,-1.63585 m 49.32343,-23.03591 -0.57083,1.63585 0.57083,-1.63585 m 14.57283,-6.80607 -0.57084,1.63586 0.57084,-1.63586 m -62.6334,35.18516 c 0.86653,-0.40471 0.45335,0.47016 -0.18953,0.54584 l 0.18953,-0.54584 m 42.4143,-20.26505 -0.57082,1.63585 0.57082,-1.63585 m 4.48395,-2.09418 1.67115,0.58877 -1.67115,-0.58877 m 16.81479,-7.85315 -0.57081,1.63586 0.57081,-1.63586 m 11.20987,-5.23543 1.67118,0.58875 -1.67118,-0.58875 M 713.835,446.72683 c 0.86653,-0.40471 0.45336,0.47015 -0.18954,0.54585 l 0.18954,-0.54585 m -1.87501,1.78899 2.77147,2.81338 -3.36297,1.57063 0.5915,-4.38401 m 68.3802,-31.93614 -0.57083,1.63584 0.57083,-1.63584 m 17.93582,-8.37671 -0.0207,2.74818 0.0207,-2.74818 m -82.40289,39.85453 -0.57084,1.63586 0.57084,-1.63586 m 77.34809,-36.12449 1.10032,2.22462 2.24198,-1.04709 -1.10033,-2.22463 -2.24197,1.0471 m -83.53019,41.29431 -0.008,0.91566 0.008,-0.91566 m 13.45818,-7.19877 -0.57084,1.63585 0.57084,-1.63585 m 65.01725,-30.36551 -2.26265,3.79523 -0.55016,-1.1123 2.81281,-2.68293 m -68.95104,33.572 -2.83347,5.43108 -0.55016,-1.1123 3.38363,-4.31878 m -137.71197,66.59925 0.74082,0.56592 -0.74082,-0.56592 m 147.23003,-69.6753 -1.14166,3.2717 1.14166,-3.2717 m 49.87358,-21.9236 1.67115,0.58876 -1.67115,-0.58876 m 31.38761,-14.6592 -0.57077,1.63581 0.57077,-1.63581 m -28.59548,14.72442 c 2.6591,2.97678 4.07652,2.91862 7.25542,0.7192 l -0.55016,-1.11231 -6.70526,0.39311 m 10.08889,-4.7119 1.67115,0.58878 -1.67115,-0.58878 m -108.18558,51.89603 -0.57082,1.63584 0.57082,-1.63584 m 29.32887,-13.24173 0.55705,0.19716 c -0.46243,0.44054 -1.42357,0.20754 -0.55705,-0.19716 m 5.42172,-2.98811 -0.57081,1.63583 0.57081,-1.63583 m 30.07658,-13.59094 0.93032,0.0229 -0.93032,-0.0229 m 27.08743,-12.19354 -0.008,0.91565 0.008,-0.91565 m 84.08036,-40.182 1.67117,0.58875 -1.67117,-0.58875 m -128.36334,61.31979 -0.57083,1.63586 0.57083,-1.63586 m 86.31602,-40.31285 1.67108,0.58881 -1.67108,-0.58881 m -132.84732,63.41399 -0.57081,1.63585 0.57081,-1.63585 m 129.46367,-59.09518 -1.16231,6.01986 1.16231,-6.01986 m -75.67695,36.71324 -2.2833,6.54343 -1.16232,6.01985 3.3423,1.17753 -2.81281,2.68294 -1.62981,-6.08509 -3.32163,-3.92569 1.12099,-0.52353 0.52949,3.86045 6.21709,-9.74989 m 126.67151,-59.16039 1.67118,0.58876 -1.67118,-0.58876 m -429.6062,202.92012 c 8.46402,-3.44091 7.69133,11.30672 1.629,14.13805 -8.28743,3.87056 -8.11489,-11.50185 -1.629,-14.13805 m 251.91949,-118.56237 0.55016,1.1123 -1.6918,2.1594 4.46328,0.65397 -0.57083,1.63586 -6.13443,-1.24275 3.38362,-4.31878 m 47.08146,-21.98882 -0.57083,1.63584 0.57083,-1.63584 m 53.7867,-22.38193 1.67115,0.58876 -1.67115,-0.58876 m 3.36296,-1.57063 -0.0207,2.74815 0.0207,-2.74815 m -58.31198,29.9724 0.55016,1.11231 3.36296,-1.57062 -3.91312,0.45831 m -36.99257,17.27694 -0.57083,1.63585 0.57083,-1.63585 m 51.5654,-24.083 -1.14165,3.2717 1.14165,-3.2717 m 3.36296,-1.57063 -0.57084,1.63586 0.57084,-1.63586 m 77.34811,-36.1245 1.67118,0.58876 -1.67118,-0.58876 m -34.58118,18.43328 0.74082,0.56593 -0.74082,-0.56593 m 76.22709,-35.60094 0.74093,0.56588 -0.74093,-0.56588 m -177.306,83.26458 -0.5915,4.38401 -1.65048,-3.33692 2.24198,-1.04709 m 86.31599,-40.31284 -0.57083,1.63586 0.57083,-1.63586 m 44.83943,-20.94171 3.34236,1.17749 -3.34236,-1.17749 m -135.08921,64.46103 -0.57084,1.63586 0.57084,-1.63586 m 58.29132,-27.22425 -0.57083,1.63584 0.57083,-1.63584 m 34.7506,-16.22985 -0.63282,9.88032 1.6918,-2.15938 0.55016,1.1123 -1.14163,3.2717 -2.79215,-0.0652 c -1.1294,-5.04265 -1.10597,-8.08376 2.32464,-12.03972 m 90.79992,-42.407 1.67117,0.58874 -1.67117,-0.58874 m -139.57319,66.55522 -0.57083,1.63584 0.57083,-1.63584 m 90.79997,-42.40703 1.67108,0.5888 -1.67108,-0.5888 m 38.85371,-17.23286 0.74093,0.56587 -0.74093,-0.56587 m 8.22774,-4.75596 1.67117,0.58875 -1.67117,-0.58875 m -173.20284,82.26155 3.32164,3.92568 -7.27609,2.02896 2.22131,1.70105 -1.121,0.52355 -2.77147,-2.81338 5.62561,-5.36586 m 123.30859,-57.58979 -0.57085,1.63587 0.57085,-1.63587 m 39.78469,-17.21171 1.67117,0.58875 -1.67117,-0.58875 m -176.57212,84.74842 -0.008,0.91567 0.008,-0.91567 m 145.71399,-66.22873 1.67117,0.58874 -1.67117,-0.58874 m -40.37621,21.59573 -0.61215,7.13216 2.28329,-6.54341 1.121,-0.52354 0.50882,6.60862 -9.49738,0.32788 6.19642,-7.00171 m -57.74116,28.33655 -0.57083,1.63585 0.57083,-1.63585 m 4.48394,-2.09417 -0.57083,1.63586 0.57083,-1.63586 m 44.83314,-20.02548 -0.008,0.91565 0.008,-0.91565 m 85.75149,-39.59323 1.67117,0.58875 -1.67117,-0.58875 m -160.87193,76.50254 -0.57083,1.63585 0.57083,-1.63585 m 77.32742,-33.37633 -1.14163,3.27171 1.14163,-3.27171 m 2.24198,-1.04709 2.77147,2.81338 -1.12099,0.52354 -1.12098,0.52354 -0.5295,-3.86046 m 42.02671,-18.25881 -0.57085,1.63587 0.57085,-1.63587 m -36.44243,18.38926 -0.57083,1.63584 0.57083,-1.63584 m 39.23452,-18.32402 -0.57086,1.63586 0.57086,-1.63586 m -46.53129,23.10112 -0.57081,1.63585 0.57081,-1.63585 m 44.83952,-20.94175 -0.57086,1.63587 0.57086,-1.63587 m -46.53132,23.10115 -0.57082,1.63585 0.57082,-1.63585 m 7.84691,-3.66481 -0.59149,4.38403 0.59149,-4.38403 m 42.20988,-17.88839 0.55699,0.19718 c -0.46232,0.44049 -1.42355,0.20753 -0.55699,-0.19718 m -2.99601,2.31253 1.10033,2.22462 -2.24193,1.04707 -1.10033,-2.22462 2.24193,-1.04707 m -40.92633,20.48342 -0.57084,1.63585 0.57084,-1.63585 m 67.25922,-31.4126 1.67117,0.58874 -1.67117,-0.58874 m -28.59551,14.72443 -0.57085,1.63587 0.57085,-1.63587 m 6.72591,-3.14126 0.55016,1.11231 -4.52527,7.59048 3.97511,-8.70279 m 6.15515,-1.50543 1.67107,0.5888 -1.67107,-0.5888 m -144.99499,69.54332 c 0.86652,-0.40469 0.45334,0.47016 -0.18953,0.54585 l 0.18953,-0.54585 m 31.20444,-15.02961 -0.57084,1.63584 0.57084,-1.63584 m 126.6715,-59.16039 -0.0413,5.49629 2.83348,-5.43111 -2.79219,-0.0651 m 6.72591,-3.14126 1.67117,0.58875 -1.67117,-0.58875 m 70.60149,-30.23508 1.67119,0.58875 -1.67119,-0.58875 m -85.76578,41.42514 -0.57085,1.63586 0.57085,-1.63586 m -144.62799,70.28525 0.55016,1.11231 -3.36295,1.57063 3.34228,1.17753 3.30098,6.67385 c -5.39504,-1.15677 -6.56991,-5.6469 -6.6226,-10.59953 l 2.79213,0.0652 m 28.59551,-14.72442 -0.57083,1.63583 0.57083,-1.63583 m 100.8888,-47.1189 -0.57077,1.63581 0.57077,-1.63581 m 19.0568,-8.90025 1.67117,0.58874 -1.67117,-0.58874 m 25.78272,-12.0415 1.67117,0.58874 -1.67117,-0.58874 m 3.36294,-1.57063 -0.0207,2.74817 0.0207,-2.74817 m -53.26358,27.15865 -0.008,0.91563 0.008,-0.91563 m 33.63603,-16.62259 1.67107,0.58881 -1.67107,-0.58881 m -154.1461,73.36132 -0.57082,1.63586 0.57082,-1.63586 m 130.03447,-60.73101 -0.57077,1.63582 0.57077,-1.63582 m 27.45388,-11.45275 1.67117,0.58874 -1.67117,-0.58874 m -130.60532,62.36687 -0.57082,1.63587 0.57082,-1.63587 m -26.35352,13.67736 -0.57083,1.63585 0.57083,-1.63585 m 126.10071,-57.52456 3.87182,5.03799 -5.03413,0.98188 1.16231,-6.01987 m 17.93578,-8.37669 3.87183,5.03798 -1.12102,0.52357 -3.32166,-3.92569 -2.26264,3.79525 3.89252,2.2898 -4.50466,4.84237 c -1.98366,-2.55147 -2.1442,-2.67503 0.59145,-4.384 l -0.55016,-1.1123 -3.36295,1.57062 6.76729,-8.6376 m -145.17815,69.17294 -0.57082,1.63587 0.57082,-1.63587 m 130.03446,-60.73102 -0.57075,1.63584 0.57075,-1.63584 m 53.97681,-22.92665 0.74093,0.56587 -0.74093,-0.56587 m -47.2715,22.53353 -0.57085,1.63587 0.57085,-1.63587 m 25.78272,-12.0415 1.67108,0.5888 -1.67108,-0.5888 m 17.93578,-8.37669 3.32156,3.92572 1.12103,-0.52356 -4.44259,-3.40216 m -174.32383,82.78509 -0.57084,1.63586 0.57084,-1.63586 m 128.91346,-60.20747 1.65048,3.33692 -1.12091,0.52351 -0.52957,-3.86043 m 41.47656,-19.37112 1.65048,3.33692 1.12103,-0.52356 -0.52957,-3.86044 -2.24194,1.04708 m 30.26668,-14.13569 1.67109,0.58879 -1.67109,-0.58879 m 4.48392,-2.09414 1.67119,0.58871 -1.67119,-0.58871 m -202.34849,95.87365 -0.57084,1.63584 0.57084,-1.63584 m 155.81716,-72.77252 -2.8334,5.43106 2.8334,-5.43106 m 31.3877,-14.65924 1.67118,0.58874 -1.67118,-0.58874 m -64.46708,31.47781 -0.57086,1.63587 0.57086,-1.63587 m 6.7259,-3.14126 -0.57085,1.63587 0.57085,-1.63587 m 58.8415,-26.11194 4.46327,0.654 -4.46327,-0.654 m -188.89666,89.59116 -0.57084,1.63585 0.57084,-1.63585 m 194.48096,-89.46072 -1.71248,4.90754 1.71248,-4.90754 m -64.46719,31.47785 -0.57075,1.63583 0.57075,-1.63583 m 2.24205,-1.04711 -0.57086,1.63587 0.57086,-1.63587 m 22.41975,-10.47088 -0.61224,7.13222 2.81289,-2.68297 -0.0207,2.74817 1.12102,-0.52357 -1.65048,-3.33692 6.15505,-1.50538 -0.55017,-1.11232 -2.7715,-2.81337 -4.48388,2.09414 m 16.81477,-7.85313 3.34227,1.17755 -1.10033,-2.22462 -2.24194,1.04707 m -39.25521,21.07219 -0.57085,1.63585 0.57085,-1.63585 m 16.81477,-7.85314 -0.57077,1.63581 0.57077,-1.63581 m 48.2025,-22.51237 1.67109,0.58874 -1.67109,-0.58874 m -3.93375,3.20643 -2.26262,3.79525 1.07962,4.97279 7.29679,-4.77712 -6.11379,-3.99092 m -63.34615,30.95432 -1.14161,3.27168 1.14161,-3.27168 m 65.5674,-29.25321 -0.57076,1.63582 0.57076,-1.63582 m -40.1861,21.05098 0.74083,0.56592 -0.74083,-0.56592 m 5.41484,-2.07297 1.67119,0.58874 -1.67119,-0.58874 m 4.48398,-2.09419 1.67108,0.58879 -1.67108,-0.58879 m 31.3876,-14.6592 -0.57077,1.63581 0.57077,-1.63581 m -7.31736,7.52525 1.10032,2.22461 1.14162,-3.27168 -2.24194,1.04707 m -1.69187,2.15942 1.67117,0.58875 -1.67117,-0.58875 m -1.71247,4.90755 1.67117,0.58874 -1.67117,-0.58874 m -21.8696,11.58317 -2.26264,3.79525 -0.55015,-1.1123 2.81279,-2.68295 m 39.21394,-15.57587 1.67119,0.58874 -1.67119,-0.58874 m -43.16835,21.53049 -0.57085,1.63588 0.57085,-1.63588 m -2.81279,2.68295 -0.57086,1.63586 0.57086,-1.63586 m -2.81279,2.68292 -0.59155,4.38404 0.59155,-4.38404 m 28.55411,-9.22808 3.95451,-5.95467 -3.95451,5.95467 m 13.47252,-9.03069 1.6712,0.58876 -1.6712,-0.58876 m -17.95649,11.12487 1.67118,0.58875 -1.67118,-0.58875 m 8.96794,-4.18837 1.67118,0.58876 -1.67118,-0.58876 m -11.78073,6.8713 1.67118,0.58876 -1.67118,-0.58876 m -5.62558,5.36588 1.67117,0.58874 -1.67117,-0.58874 m 21.84889,-8.83502 2.77151,2.81337 1.12096,-0.52356 -3.89247,-2.28981 m 7.84694,-3.66481 1.67119,0.58875 -1.67119,-0.58875 m -29.71644,15.24796 1.67109,0.58879 -1.67109,-0.58879 m 16.05388,-5.67256 0.93033,0.0228 -0.93033,-0.0228 m 22.60978,-11.01559 1.67119,0.58874 -1.67119,-0.58874 m -58.86217,28.86012 2.22134,1.70106 -2.24193,1.04706 0.0206,-2.74812 m 14.19213,-5.71496 0.74082,0.56593 -0.74082,-0.56593 m 11.59059,-6.32655 -0.57076,1.63583 0.57076,-1.63583 m 2.79219,0.0652 2.22124,1.7011 -2.24193,1.04707 0.0207,-2.74817 m -24.11163,12.63029 2.20064,4.44924 -1.12091,0.5235 -1.07973,-4.97274 m 33.62964,-15.70631 2.20064,4.44923 1.12102,-0.52356 -3.32166,-3.92567 m 12.33088,-5.75899 1.67119,0.58875 -1.67119,-0.58875 m -49.34407,25.78406 -1.14171,3.27172 1.14171,-3.27172 m 11.20988,-5.23543 1.67107,0.58878 -1.67107,-0.58878 m 19.23991,-8.52981 0.5571,0.19714 c -0.46242,0.44053 -1.42355,0.20753 -0.5571,-0.19714 m 19.9946,-9.7942 1.67119,0.58874 -1.67119,-0.58874 m 3.91315,-0.45833 1.10032,2.22462 2.24206,-1.04712 -3.34238,-1.1775 m -57.74118,28.33657 -0.57087,1.63586 0.57087,-1.63586 m 11.76004,-4.12313 -1.71248,4.90754 1.71248,-4.90754 m 20.17771,-9.42376 -0.57075,1.63582 0.57075,-1.63582 m 8.96795,-4.18837 -1.14171,3.27173 1.14171,-3.27173 m 3.36295,-1.57063 1.65048,3.33693 1.12103,-0.52356 -2.77151,-2.81337 m -20.74857,11.05963 3.34225,1.17754 -3.34225,-1.17754 m 29.69576,-12.49983 -2.26256,3.79525 5.56364,2.8786 -3.40442,7.06697 6.72598,-3.1413 0.57076,-1.63581 -3.89232,-2.28986 -3.30108,-6.67385 m 4.48402,-2.09418 0.52945,3.86047 -0.52945,-3.86047 m -52.13627,25.71887 -0.57086,1.63587 0.57086,-1.63587 m 22.41976,-10.47087 0.55016,1.11231 3.36295,-1.57063 -0.55016,-1.11231 -3.36295,1.57063 m 62.77515,-29.3184 1.6713,0.58871 -1.6713,-0.58871 m -24.11141,12.6302 1.67108,0.5888 -1.67108,-0.5888 m 2.24195,-1.04706 1.6712,0.58875 -1.6712,-0.58875 m 19.60685,-7.7879 1.67131,0.58871 -1.67131,-0.58871 m -55.4991,27.28946 1.67117,0.58874 -1.67117,-0.58874 m 8.96785,-4.18832 -0.57076,1.63581 0.57076,-1.63581 m 29.14576,-13.61217 1.67108,0.58878 -1.67108,-0.58878 m 20.1777,-9.42376 2.2212,1.70108 1.1212,-0.52361 0.021,-2.7481 -3.363,1.57063 m -59.98308,29.38362 1.67108,0.58879 -1.67108,-0.58879 m 53.23663,-23.49426 3.34217,1.17759 -1.10032,-2.22461 -2.24185,1.04702 m -56.62028,27.81307 2.20064,4.44921 -1.12101,0.52357 -1.07963,-4.97278 m 56.0287,-23.42902 -0.59159,4.38403 0.55016,1.1123 1.10033,2.22462 0.55016,1.11231 3.36298,-1.57062 0.55019,1.11231 -1.69182,2.15937 3.91322,-0.45837 -0.5295,-3.86043 -2.24209,1.04712 c -0.67355,-2.96615 -0.83576,-3.01502 -3.89243,-2.28987 l -1.07961,-4.97277 m -2.81283,2.68292 1.67108,0.5888 -1.67108,-0.5888 m -38.68442,19.43636 -0.57077,1.63583 0.57077,-1.63583 m -6.17576,4.25357 6.13446,1.24274 1.10032,2.22462 -6.7466,5.88942 1.14171,-3.27173 -0.55016,-1.11231 -3.36305,1.57067 -0.55016,-1.1123 2.83348,-5.43111 m 8.96795,-4.18837 1.12092,-0.52351 2.77152,2.81336 -6.15507,1.5054 2.26263,-3.79525 m 1.10032,2.22462 1.67108,0.58879 -1.67108,-0.58879 m -14.02266,7.91837 -0.57087,1.63586 0.57087,-1.63586 m 6.53576,-2.59649 0.93034,0.0228 -0.93034,-0.0228 m 36.61184,-16.18584 1.67119,0.58875 -1.67119,-0.58875 m 4.48402,-2.09419 1.67119,0.58876 -1.67119,-0.58876 m -40.92641,20.48345 1.67117,0.58874 -1.67117,-0.58874 m 40.9057,-17.73528 1.67119,0.58876 -1.67119,-0.58876 m -45.41027,22.57758 -0.57086,1.63587 0.57086,-1.63587 m 42.40744,-19.34992 0.93027,0.0229 -0.93027,-0.0229 m -48.58319,23.60349 -0.57085,1.63586 0.57085,-1.63586 m -3.93381,3.20648 -0.57086,1.63587 0.57086,-1.63587 m 42.59743,-19.89463 2.22135,1.70105 -2.22135,-1.70105 m 3.36299,-1.57062 -0.57076,1.6358 0.57076,-1.6358 m -19.62756,10.53606 -0.57087,1.63587 0.57087,-1.63587 m 8.94723,-1.44019 -0.59148,4.38403 3.91304,-0.45831 0.55016,1.11231 -4.4632,-0.654 -10.06825,1.9637 0.55016,1.11232 4.42189,6.15033 2.26266,-3.79524 0.52956,3.86044 -2.24206,1.04711 -7.80549,-1.83153 0.52947,3.86048 -7.80554,-1.83153 4.48397,-2.09419 -3.91321,0.45836 -0.55016,-1.1123 7.29676,-4.77714 0.52957,3.86045 3.3629,-1.57063 -0.55016,-1.11231 -3.32162,-3.92567 7.82624,-0.91664 -2.77151,-2.81336 7.8263,-0.91668 m 3.38359,-4.31877 -0.57076,1.63583 0.57076,-1.63583 m 2.24206,-1.04711 -0.57087,1.63587 0.57087,-1.63587 m 22.41968,-10.47088 -0.0207,2.74818 0.0207,-2.74818 m 31.93773,-13.54688 1.6712,0.58875 -1.6712,-0.58875 m -45.41018,22.57757 0.55016,1.1123 6.15499,-1.50537 -0.55016,-1.11232 -6.15499,1.50539 m 16.81468,-7.85314 0.5295,3.86048 4.4841,-2.09422 -0.5501,-1.1123 -4.4635,-0.65396 m -36.44235,18.38925 3.34228,1.17755 -3.34228,-1.17755 m -21.8696,11.5832 4.44268,3.4021 -3.91312,0.45832 -0.55016,-1.11231 3.91312,-0.45831 -4.46328,-0.654 0.57076,-1.6358 m 40.35552,-18.84758 4.46342,0.65394 -4.46342,-0.65394 m -17.95647,11.12487 -0.57076,1.63582 0.57076,-1.63582 m 15.69391,-7.32963 1.67109,0.58876 -1.67109,-0.58876 m -26.35352,13.67733 1.67108,0.58879 -1.67108,-0.58879 m 32.50863,-15.18276 4.422,6.15029 -5.60506,2.61774 7.78499,4.57967 1.12103,-0.52356 -0.50885,-6.60861 4.99267,4.51447 0.5501,1.1123 -4.48376,2.09414 0.55016,1.11232 6.155,-1.50539 -0.5295,-3.86048 -3.8925,-2.28981 3.363,-1.57063 -0.5502,-1.11232 -3.91312,0.45833 -1.10032,-2.22463 2.81283,-2.68291 -0.55016,-1.11231 -3.93375,3.20644 -6.68456,-2.35505 m 4.48391,-2.09418 1.67109,0.58879 -1.67109,-0.58879 m 15.69387,-7.32962 1.6711,0.58878 -1.6711,-0.58878 m -5.4355,4.82115 0.7407,0.56596 -0.7407,-0.56596 m -56.23954,26.72194 -0.57077,1.63583 0.57077,-1.63583 m 15.69389,-7.32962 -1.71251,4.90755 1.71251,-4.90755 m 44.45875,-19.85064 0.7407,0.56597 -0.7407,-0.56597 m 6.5359,-2.59654 3.913,-0.45832 -0.5914,4.38404 2.8127,-2.68294 -4.4427,-3.40211 -1.6916,2.15933 m -59.41248,27.74787 -0.57075,1.63581 0.57075,-1.63581 m 39.23467,-18.32407 -0.57087,1.63587 0.57087,-1.63587 m 38.11351,-17.80045 1.1003,2.22462 2.242,-1.04712 -3.3423,-1.1775 m -81.28828,40.24723 -0.008,0.91566 0.008,-0.91566 m 17.36508,-6.74087 -0.0109,0.91567 0.0109,-0.91567 m 5.61115,-3.53392 -1.7125,4.90754 1.7125,-4.90754 m 22.41979,-10.47093 0.55016,1.11231 0.55016,1.11231 -3.36288,1.57063 2.26256,-3.79525 m 15.69386,-7.32962 1.6711,0.5888 -1.6711,-0.5888 m -30.83751,15.77155 1.67109,0.5888 -1.67109,-0.5888 m -22.99061,12.10675 1.10034,2.22461 -3.34227,-1.17755 2.24193,-1.04706 m 3.36295,-1.57063 -0.57076,1.63581 0.57076,-1.63581 m 47.08137,-21.98882 0.5502,1.1123 4.4427,3.40212 2.8128,-2.68294 -7.8057,-1.83148 m 5.6051,-2.61774 0.5501,1.1123 0.5502,1.11232 3.363,-1.57063 -0.5502,-1.11232 -3.9131,0.45833 m -31.40832,17.40737 0.55016,1.1123 3.93386,-3.20648 -4.48402,2.09418 m -14.57278,6.80607 -0.57087,1.63586 0.57087,-1.63586 m -0.0207,2.74816 -1.16234,6.01986 -1.07961,-4.97279 2.24195,-1.04707 m 14.57277,-6.80607 1.6712,0.58876 -1.6712,-0.58876 m 8.96794,-4.18836 1.67108,0.58881 -1.67108,-0.58881 m 13.26179,-5.7378 0.9303,0.0229 -0.9303,-0.0229 m -34.01049,16.79748 1.67119,0.58874 -1.67119,-0.58874 m 14.57288,-6.80607 3.32168,3.92566 -2.83354,5.43112 4.50473,-4.84236 5.01336,1.76629 -3.87173,-5.03797 -1.14163,3.27168 -4.99287,-4.51442 m 47.08151,-21.98887 1.6711,0.58879 -1.6711,-0.58879 m -65.58803,32.00137 1.67108,0.58881 -1.67108,-0.58881 m 5.00704,2.68258 -0.0109,0.91566 0.0109,-0.91566 m 25.19751,-8.57374 3.36309,-1.57067 -1.65048,-3.33693 -1.71261,4.9076 m 19.64828,-13.28424 -0.021,2.74813 0.5501,1.11231 4.4839,-2.09414 -5.0134,-1.7663 m -46.53127,23.10112 0.55016,1.11231 -5.05479,3.73001 4.50463,-4.84232 m 8.96793,-4.18836 1.67108,0.5888 -1.67108,-0.5888 m 3.36299,-1.57063 1.67108,0.58876 -1.67108,-0.58876 m 28.00395,-10.34044 1.6711,0.58879 0.5916,-4.38404 -2.2627,3.79525 m 1.6918,-2.15938 -0.5708,1.63587 0.5708,-1.63587 m -36.44244,18.38925 1.10032,2.22461 -2.24185,1.04707 1.14153,-3.27168 m -9.5387,5.82418 6.09308,6.7391 -4.48391,2.09418 -0.50885,-6.60865 -1.69179,2.15941 0.59147,-4.38404 m 16.24397,-6.21726 1.67119,0.58875 -1.67119,-0.58875 m 29.14577,-13.61217 1.671,0.58879 -1.671,-0.58879 m -52.1363,25.71887 -0.57086,1.63586 0.57086,-1.63586 m 4.484,-2.09418 0.50874,6.60864 -1.12092,0.52352 -2.77152,-2.81337 3.3837,-4.31879 m 21.84891,-8.83502 -0.0207,2.74818 0.0207,-2.74818 m 3.17288,-1.02591 0.93038,0.0229 -0.93038,-0.0229 m 32.12771,-14.0916 2.7923,0.0651 0.5501,1.11231 -1.1417,3.27173 5.0549,-3.73005 -5.5637,-2.87861 -1.6919,2.15943 m -59.41216,27.74777 1.67108,0.5888 -1.67108,-0.5888 m 49.87346,-21.92358 1.6712,0.58875 -1.6712,-0.58875 m 3.363,-1.57063 1.6712,0.58876 -1.6712,-0.58876 m -35.32142,17.86569 -0.57076,1.63587 0.57076,-1.63587 m 38.66382,-16.68818 3.3422,1.17754 -1.1003,-2.22461 -2.2419,1.04707 m 6.7053,-0.39313 1.6711,0.5888 -1.6711,-0.5888 m -64.48782,34.22603 1.65048,3.33692 -2.79213,-0.0653 -0.55016,-1.11231 1.69181,-2.15938 m 53.80732,-25.13012 1.6711,0.5888 -1.6711,-0.5888 m -46.17113,24.75821 0.93027,0.0228 -0.93027,-0.0228 m 33.81963,-16.25103 1.6712,0.58874 -1.6712,-0.58874 m 14.5728,-6.80607 1.6712,0.58874 -1.6712,-0.58874 m -21.86961,11.58317 1.67119,0.58877 -1.67119,-0.58877 m 11.20991,-5.23543 3.3423,1.17751 -3.3423,-1.17751 m -54.37818,26.76595 -0.57077,1.63581 0.57077,-1.63581 m 40.34923,-17.93135 -0.0109,0.91568 0.0109,-0.91568 m 5.61126,-3.53396 1.67109,0.58879 -1.67109,-0.58879 m 4.48399,-2.09419 1.6711,0.58879 -1.6711,-0.58879 m -1.71258,4.9076 3.36308,-1.57067 -2.2214,-1.70107 -1.14168,3.27174 m 14.59358,-9.55424 5.5635,2.8786 -5.5635,-2.8786 m 3.3629,-1.57063 1.6712,0.58874 -1.6712,-0.58874 m -33.65018,18.45444 0.55016,1.1123 5.60484,-2.61769 -0.55016,-1.1123 -5.60484,2.61769 m -20.56545,11.43002 c 0.8665,-0.40467 0.45336,0.47019 -0.18956,0.54589 l 0.18956,-0.54589 m 16.63159,-8.22353 1.6712,0.58875 -1.6712,-0.58875 m -9.53869,5.8242 1.67108,0.58879 -1.67108,-0.58879 m 12.33081,-5.75896 1.67119,0.58875 -1.67119,-0.58875 m 10.08886,-4.71188 -2.26267,3.79524 0.55016,1.11231 1.71251,-4.90755 m 5.03418,-0.98187 6.70528,-0.39313 -6.70528,0.39313 m 17.38568,-9.48905 1.6711,0.5888 -1.6711,-0.5888 m -49.89432,24.6718 -0.57076,1.63581 0.57076,-1.63581 m 24.07026,-7.13395 1.67109,0.58875 -1.67109,-0.58875 m -2.81282,2.68294 1.67119,0.58874 -1.67119,-0.58874 m 8.37635,0.19566 1.67119,0.58874 -1.67119,-0.58874 m -15.14365,8.44193 -0.57076,1.63583 0.57076,-1.63583 m 35.30078,-15.11755 1.6712,0.58874 -1.6712,-0.58874 m -35.32138,17.86568 -1.71251,4.90755 1.71251,-4.90755 m 40.35548,-18.84757 -0.021,2.74818 0.021,-2.74818 m -32.52929,17.93094 -0.61207,7.13215 3.36287,-1.57063 2.26267,-3.79523 -5.01347,-1.76629 m 29.69579,-12.49983 1.6712,0.58875 -1.6712,-0.58875 m 4.484,-2.09419 1.6712,0.58876 -1.6712,-0.58876 m -37.56338,18.91281 -0.0207,2.74818 0.0207,-2.74818 m -14.02272,7.91838 -0.57087,1.63587 0.57087,-1.63587 m 5.60506,-2.61774 -1.14175,3.27172 1.14175,-3.27172 m 13.45173,-6.28252 -0.57087,1.63587 0.57087,-1.63587 m 4.48403,-2.09417 1.67108,0.58879 -1.67108,-0.58879 m 31.38758,-14.65921 1.6712,0.58876 -1.6712,-0.58876 m -44.28938,22.05407 1.67119,0.58874 -1.67119,-0.58874 m -8.4241,6.2169 -0.0109,0.91562 0.0109,-0.91562 m 3.91959,-1.37459 -0.57088,1.63586 0.57088,-1.63586 m 35.49079,-15.66229 0.7409,0.56593 -0.7409,-0.56593 m -27.09373,13.10978 -0.57087,1.63586 0.57087,-1.63586 m 3.36299,-1.57063 1.67108,0.58875 -1.67108,-0.58875 m 10.63901,-3.59957 1.67113,0.58875 -1.67113,-0.58875 m -29.22838,24.60477 -0.57076,1.63583 0.57076,-1.63583 m -7.88822,9.16111 -0.57076,1.63585 0.57076,-1.63585 m 3.36299,-1.57063 -0.57087,1.63587 0.57087,-1.63587 m 10.08886,-4.71187 -0.57076,1.63582 0.57076,-1.63582 m -16.27096,9.8817 -0.008,0.91566 0.008,-0.91566 m 17.37128,-7.65708 -0.57076,1.63581 0.57076,-1.63581 m 2.24196,-1.04711 -0.57077,1.63585 0.57077,-1.63585 m 12.33081,-5.75896 1.67119,0.58874 -1.67119,-0.58874 m -25.2325,13.1538 1.65048,3.33694 -1.12092,0.52351 -0.52956,-3.86045 m 14.00212,-5.17023 2.77129,2.81342 -4.4632,-0.654 1.69191,-2.15942 m 5.60483,-2.61769 0.52956,3.86043 c 1.88103,-2.21765 2.14996,-2.63078 -0.52956,-3.86043 m -25.2325,13.15378 2.22125,1.70109 -2.22125,-1.70109 m -2.81282,2.68295 3.32167,3.92567 -1.12103,0.52355 -2.20064,-4.44922 m 13.45184,-6.28254 -0.57076,1.63586 0.57076,-1.63586 m 5.60495,-2.6177 0.55016,1.11231 -3.93386,3.20648 3.3837,-4.31879 m -7.29674,4.77712 0.55016,1.1123 -3.93376,3.20648 -0.55016,-1.11231 3.93376,-3.20647 m -5.05479,3.73001 1.65048,3.33693 -2.79211,-0.0653 -0.55016,-1.1123 1.69179,-2.15939 m 22.41978,-10.47088 0.55016,1.1123 5.03408,-0.98184 -0.55016,-1.1123 -5.03408,0.98184 m -15.14364,8.44192 5.56352,2.8786 -1.12103,0.52356 -5.01336,-1.7663 0.57087,-1.63586 m 4.48391,-2.09418 -0.57087,1.63586 0.57087,-1.63586 m -6.17581,4.2536 -0.57077,1.63583 0.57077,-1.63583 m 14.57277,-6.80606 5.01358,1.76624 -5.01358,-1.76624 m 173.18221,-79.51339 -0.021,2.74811 2.2419,-1.04707 -2.2213,-1.70104 m 5.0342,-0.98189 -3.3836,4.31881 0.55,1.1123 3.9339,-3.20648 6.7259,-3.14126 -0.5502,-1.11232 -2.8127,2.68295 -2.242,1.04707 -2.2213,-1.70107 m -172.08192,81.73801 1.67119,0.58876 -1.67119,-0.58876 m -1.6918,2.15939 3.34228,1.17754 -3.34228,-1.17754 m -36.46306,21.1374 -0.57082,1.63585 0.57082,-1.63585 m 38.11355,-17.80048 1.67119,0.58874 -1.67119,-0.58874 m -24.11158,12.63027 -0.57076,1.63584 0.57076,-1.63584 m 2.79212,0.0652 -0.57077,1.63586 0.57077,-1.63586 m 3.91315,-0.45832 1.10032,2.22461 -3.34228,-1.17753 2.24196,-1.04708 m 10.04754,0.78442 1.67119,0.58874 -1.67119,-0.58874 m -0.6741,15.37665 -0.57087,1.63586 0.57087,-1.63586 m 4.46331,0.65398 -0.57087,1.63588 0.57087,-1.63588 m 7.76427,7.32783 1.10032,2.22462 2.24185,-1.04706 -3.34217,-1.17756 m -20.19853,12.17195 -0.57077,1.63585 0.57077,-1.63585 m 26.90363,-12.56502 1.6712,0.58875 -1.6712,-0.58875 m 8.968,-4.18837 1.6712,0.58875 -1.6712,-0.58875 m -44.2893,22.05405 -0.0207,2.74815 1.12103,-0.52354 6.1344,1.24276 -4.46331,-0.654 -5.58424,-0.13044 2.81283,-2.68293 m 26.84167,-4.32058 1.67108,0.5888 -1.67108,-0.5888 m 2.22124,1.70111 1.6712,0.58874 -1.6712,-0.58874 m -36.25887,18.75986 c 0.8665,-0.40471 0.45335,0.47016 -0.18954,0.54585 l 0.18954,-0.54585 m -21.50261,12.32508 -0.57083,1.63586 0.57083,-1.63586 m 31.38762,-14.6592 -0.57076,1.63584 0.57076,-1.63584 m -6.17571,4.25356 3.91304,-0.45832 -2.83343,5.43108 -1.07961,-4.97276 m -3.93383,3.20648 1.65045,3.33691 -1.12095,0.52355 -0.5295,-3.86046 m 9.49735,-0.32788 -0.57076,1.63586 0.57076,-1.63586 m -7.1135,5.14751 c 0.8665,-0.4047 0.45337,0.47017 -0.18956,0.54585 l 0.18956,-0.54585 m 5.42171,-2.98811 -0.57077,1.63585 0.57077,-1.63585 m 8.96793,-4.18835 -0.57087,1.63585 0.57087,-1.63585 m 5.60495,-2.61771 1.67108,0.58876 -1.67108,-0.58876 m -21.31946,12.69547 -0.57081,1.63585 0.57081,-1.63585 m 8.96793,-4.18835 1.67109,0.58877 -1.67109,-0.58877 m -6.17582,4.25358 -0.57076,1.63584 0.57076,-1.63584 m 22.41979,-10.47087 1.67119,0.58875 -1.67119,-0.58875 m -0.0207,2.74816 0.55016,1.11231 6.15511,-1.50542 -0.55016,-1.1123 -6.15511,1.50541 m -19.07739,11.64838 1.67108,0.58878 -1.67108,-0.58878 m 10.04754,0.78443 1.12104,-0.52353 1.14163,-3.27171 c -3.01405,-0.12318 -2.97089,1.04381 -2.26267,3.79524 m -8.98853,6.93652 -0.57087,1.63584 0.57087,-1.63584 m 13.45184,-6.28253 1.67109,0.58876 -1.67109,-0.58876 m 62.18374,-24.93441 c 2.1924,11.91546 3.7155,18.401 17.15842,20.74073 l -3.177,-23.16281 -13.98142,2.42208 m -104.88458,58.56985 -0.57083,1.63586 0.57083,-1.63586 m 10.63904,-3.59957 1.67116,0.58876 -1.67116,-0.58876 m -5.05477,3.73002 1.67114,0.58876 -1.67114,-0.58876 m -3.38362,4.31879 0.55016,1.1123 4.48395,-2.09417 -1.14165,3.2717 c 4.65799,-0.35846 1.14572,-5.22478 -3.89246,-2.28983 m 31.38761,-14.65921 3.34227,1.17752 -1.10032,-2.2246 -2.24195,1.04708 m -30.30796,19.63198 3.3423,1.17753 -3.3423,-1.17753 m 20.15707,-6.67562 1.6712,0.58876 -1.6712,-0.58876 m -21.86955,11.58317 -0.57082,1.63585 0.57082,-1.63585 m 5.41487,-2.07297 0.93031,0.0228 -0.93031,-0.0228 m -9.34864,5.27945 -0.57084,1.63586 0.57084,-1.63586 m 11.76002,-4.12312 1.67114,0.58877 -1.67114,-0.58877 m -6.25841,15.24621 2.15931,9.94554 -4.48396,2.09417 2.26265,-3.79525 -4.44262,-3.40213 4.50462,-4.84233 m 14.57282,-6.80606 1.67115,0.58875 -1.67115,-0.58875 m -16.2853,11.7136 1.67115,0.58877 -1.67115,-0.58877 m 5.03411,-0.98185 -0.57082,1.63584 0.57082,-1.63584 m 2.24198,-1.0471 -0.57084,1.63586 0.57084,-1.63586 m -1.71248,4.90755 -0.57084,1.63586 0.57084,-1.63586 m 9.51805,-3.07604 1.67115,0.58877 -1.67115,-0.58877 m 5.21731,-0.61146 c 0.86649,-0.4047 0.45335,0.47016 -0.18953,0.54585 l 0.18953,-0.54585 m -4.11699,2.83609 1.67115,0.58875 -1.67115,-0.58875 m -10.10955,7.46004 1.65048,3.33692 2.81281,-2.68294 -4.46329,-0.65398 m 4.48395,-2.09417 8.88524,6.80429 0.55016,1.11231 -0.59149,4.384 8.94724,-1.44018 -2.81283,2.68293 -0.61219,7.13217 6.11379,3.99092 -2.79211,-0.0652 0.55016,1.11231 c 3.41335,0.94719 4.8251,0.37822 3.93375,-3.20649 l 10.65973,-6.34774 -1.73311,7.6557 -2.77151,-2.81337 -1.12093,0.52355 1.65048,3.33691 -3.91315,0.4583 -0.0207,2.7482 0.55016,1.11233 5.01337,1.76626 -5.58424,-0.13039 -0.57087,1.63578 2.77151,2.81344 1.14164,-3.27174 4.46331,0.65403 -2.20064,-4.44922 6.1551,-1.50549 -0.0207,2.7482 0.55016,1.11234 1.12103,-0.52355 0.0207,-2.7482 6.1345,1.24271 c -3.10955,-5.1818 -7.02608,-11.83646 -13.30719,-12.95454 0.40191,-3.60948 -0.17125,-4.57004 -3.87184,-5.038 l -5.50161,-11.12308 -4.48391,2.09418 -2.85414,8.17924 -3.91315,0.45833 -2.7508,-5.56155 6.1551,-1.50538 -8.39708,2.55248 -5.54294,-5.62677 m 6.72592,-3.14125 -0.0413,5.49631 5.05478,-3.73002 -5.01346,-1.76629 m -7.88824,9.16112 4.46328,0.65398 -0.55016,-1.1123 -3.91312,0.45832 m 15.67322,-4.58146 1.67108,0.58878 -1.67108,-0.58878 m -8.98862,6.93651 1.67114,0.58877 -1.67114,-0.58877 m -2.81279,2.68294 3.32163,3.92569 1.12098,-0.52353 -4.44261,-3.40216 m 19.05672,-8.90023 2.22136,1.70106 -2.22136,-1.70106 m -31.95841,16.29506 -0.57083,1.63585 0.57083,-1.63585 m 2.24197,-1.04708 -0.57082,1.63584 0.57082,-1.63584 m 3.36297,-1.57063 -0.57083,1.63585 0.57083,-1.63585 m 22.41972,-10.47087 6.1344,1.24275 -0.63279,9.88032 -1.12093,0.52355 -4.95144,-10.01078 -1.69191,2.1594 2.26267,-3.79524 m -15.33374,8.98665 0.93035,0.0228 -0.93035,-0.0228 m 5.77438,-0.4143 0.52948,3.86048 1.121,-0.52356 -1.65048,-3.33692 m 10.08892,-4.71189 2.77141,2.81339 -2.24196,1.04708 2.77151,2.81339 c 0.74136,-3.67357 0.67411,-5.86855 -3.30096,-6.67386 m -18.52733,12.76071 -0.57083,1.63585 0.57083,-1.63585 m 6.15509,-1.5054 1.67115,0.58875 -1.67115,-0.58875 m 21.84891,-8.83503 -0.57087,1.63586 0.57087,-1.63586 m -20.19843,12.17195 2.77152,2.81337 -2.77152,-2.81337 m 3.36299,-1.57064 -0.57087,1.63586 0.57087,-1.63586 m 8.03004,-3.2944 c 0.86661,-0.4047 0.45336,0.47016 -0.18946,0.54584 l 0.18946,-0.54584 m 7.66377,-4.03521 1.10032,2.22463 -2.24196,1.04709 1.14164,-3.27172 m 3.36299,-1.57062 -0.57088,1.63585 0.57088,-1.63585 m -7.29675,4.77711 1.12093,-0.52355 1.65048,3.33693 -1.12092,0.52354 -1.65049,-3.33692 m -2.62958,3.05334 c 0.8665,-0.4047 0.45325,0.47016 -0.18957,0.54584 l 0.18957,-0.54584 m -18.13971,10.75445 4.44261,3.40213 -7.2761,2.02892 -0.55014,-1.11226 3.38363,-4.31879 m 13.45184,-6.28252 -0.57087,1.63585 0.57087,-1.63585 m -20.7486,11.05963 1.07967,4.97278 -1.12099,0.52354 -2.20064,-4.44923 2.24196,-1.04709 m 14.57284,-6.80606 -0.57083,1.63585 0.57083,-1.63585 m 2.24201,-1.04709 -0.57087,1.63585 0.57087,-1.63585 m 2.24196,-1.04708 -0.57088,1.63584 0.57088,-1.63584 m 20.72787,-8.31148 -0.57076,1.63581 0.57076,-1.63581 m -25.23253,13.15377 -0.57081,1.63586 0.57081,-1.63586 m 3.36302,-1.57063 -0.57087,1.63587 0.57087,-1.63587 m 15.12293,-5.69374 3.36299,-1.57063 -1.71251,4.90762 -1.65048,-3.33699 m 6.72598,-3.14126 5.56352,2.87858 0.55016,1.11234 c -3.6161,-0.10476 -5.77042,-0.25025 -6.11368,-3.99092 m -29.71652,15.248 3.36297,-1.57063 0.55017,1.11232 -3.93378,3.20651 -0.55017,-1.11233 0.57081,-1.63587 m 5.60494,-2.61772 -0.57081,1.63588 0.57081,-1.63588 m 6.68456,2.35505 4.48402,-2.09417 -1.65048,-3.3369 -2.83354,5.43107 m 5.07549,-6.47815 1.6712,0.58879 -1.6712,-0.58879 m 4.45688,1.57017 -0.0109,0.91572 0.0109,-0.91572 m -11.79493,8.70327 -2.81283,2.68287 -0.0414,5.4964 8.98854,-6.93655 -0.55016,-1.11233 -5.58424,-0.13039 m 1.67109,0.58869 -0.57077,1.63587 0.57077,-1.63587 m -9.00919,9.68475 -5.01348,-1.76636 5.01348,1.76636 m 23.01119,-14.85494 1.6712,0.58878 -1.6712,-0.58878 m 11.76005,-4.1231 -0.57087,1.63587 0.57087,-1.63587 m -25.2325,13.15382 -2.26266,3.7952 2.77151,2.81344 -3.3837,4.31873 0.55016,1.11234 6.1344,1.24271 -5.01337,-1.76626 -0.55016,-1.11232 6.15511,-1.50539 0.57076,-1.63587 -4.99276,-4.51447 3.36299,-1.57063 -0.55016,-1.11224 -2.79212,-0.0653 m 17.93576,-8.37669 3.89244,2.2898 -3.89244,-2.2898 m -9.53869,5.82422 1.059,7.72086 1.12093,-0.52353 1.7125,-4.90753 -3.89243,-2.2898 m 6.72586,-3.14126 1.6712,0.58868 -1.6712,-0.58868 m -26.35352,13.67727 -0.57081,1.63588 0.57081,-1.63588 m 3.35663,-0.65439 -0.008,0.91572 0.008,-0.91572 m 20.73423,-9.22769 1.67119,0.58879 -1.67119,-0.58879 m 4.48402,-2.09417 c 0.87784,3.58277 1.03546,5.64789 4.99276,4.51446 l -3.34228,-1.17757 0.0207,-2.74811 -1.67108,-0.58878 m 8.96782,-4.18835 -0.57076,1.63587 0.57076,-1.63587 m -22.99054,12.10674 4.4426,3.40213 -1.07961,-4.97276 -3.36299,1.57063 m 18.48603,-7.26437 2.75069,5.56146 1.12103,-0.52355 -3.87172,-5.03791 m -18.50674,10.01247 -0.57077,1.63588 0.57077,-1.63588 m 25.96601,-11.67107 c 0.8665,-0.40469 0.45325,0.47016 -0.18957,0.54582 l 0.18957,-0.54582 m -19.26064,11.27802 -5.07549,6.47816 3.87183,5.03799 10.08886,-4.71188 -10.06826,1.96379 -0.52944,-3.86054 4.46331,0.65403 0.0414,-5.4963 -2.79212,-0.0652 m -12.90168,7.39484 1.67108,0.5887 -1.67108,-0.5887 m 17.93575,-8.37669 1.67109,0.58869 -1.67109,-0.58869 m 4.48392,-2.09417 1.67119,0.58869 -1.67119,-0.58869 m 2.24195,-1.04708 1.6712,0.58869 -1.6712,-0.58869 m -28.59549,14.72436 0.55017,1.11233 6.11379,3.99091 -2.22125,-1.70102 -1.12103,0.52355 5.01347,1.76626 0.55016,1.11233 -0.0414,5.49631 0.65339,-12.62849 -0.55016,-1.11232 -2.81272,2.68295 -6.1345,-1.24281 m 33.62956,-15.7063 -0.59137,4.38407 2.81272,-2.68296 -1.16224,6.01985 3.91304,-0.4583 -2.7714,-2.81334 2.79212,0.0651 -4.99287,-4.51446 m -3.93375,3.2065 1.67119,0.58878 -1.67119,-0.58878 m 12.3309,-5.75898 1.6711,0.58878 -1.6711,-0.58878 m -40.92639,20.48343 1.67119,0.58878 -1.67119,-0.58878 m 8.96793,-4.18834 1.67119,0.58879 -1.67119,-0.58879 m 10.08886,-4.7119 3.34228,1.17757 -1.10032,-2.22465 -2.24196,1.04708 m 5.60494,-2.61771 4.46331,0.65403 -4.46331,-0.65403 m -7.8675,6.41301 -0.57087,1.63577 0.57087,-1.63577 m 7.8469,-3.66481 1.67109,0.58869 -1.67109,-0.58869 m 20.17766,-9.42378 -0.5709,1.63578 0.5709,-1.63578 m -19.07745,11.64834 -0.0207,2.74821 0.0207,-2.74821 m -6.1757,4.2536 1.67119,0.58878 -1.67119,-0.58878 m 11.20989,-5.23544 2.20064,4.44922 -5.62555,5.36592 4.4632,0.65393 4.4426,3.40214 -2.7714,-2.81335 3.4249,-9.81514 -0.55016,-1.11233 -2.81283,2.68296 -2.7714,-2.81335 m 7.25542,0.71918 4.48384,-2.09418 0.5708,-1.63588 -5.05464,3.73006 m -23.5201,8.2463 -0.0207,2.74811 0.0207,-2.74811 m 35.87154,-16.75339 0.5502,1.11224 -3.363,1.57063 2.8128,-2.68287 m -27.47448,14.20083 3.32168,3.92577 -3.32168,-3.92577 m -5.07538,6.47824 3.36299,-1.57063 -2.22136,-1.70112 -1.14163,3.27175 m 17.38559,-9.48902 -0.57087,1.63587 0.57087,-1.63587 m 9.89887,-4.16712 0.9302,0.0228 -0.9302,-0.0228 m 9.1579,-4.73312 -0.5709,1.63587 0.5709,-1.63587 m -16.28525,11.71358 3.36285,-1.57063 -2.22122,-1.70102 -1.14163,3.27165 m -26.33293,10.92927 -0.57076,1.63577 0.57076,-1.63577 m 22.41978,-10.47088 -2.26267,3.7952 -0.55016,-1.11233 2.81283,-2.68287 m 21.2987,-9.94731 -0.5709,1.63577 0.5709,-1.63577 m -9.5387,5.82412 1.6711,0.58879 -1.6711,-0.58879 m 4.4839,-2.09418 1.6712,0.58879 -1.6712,-0.58879 m 7.8469,-3.6648 3.3217,3.92577 -3.9131,0.45831 0.5914,-4.38408 m -21.31939,12.69553 2.77151,2.81335 -3.38359,4.31883 0.55016,1.11224 5.03401,-0.98175 0.5915,-4.38408 -5.56359,-2.87859 m 7.65689,-3.12003 0.9302,0.0228 -0.9302,-0.0228 m 5.7949,-3.16248 3.3424,1.17756 -3.3424,-1.17756 m -22.99049,12.10673 1.67119,0.58878 -1.67119,-0.58878 m 21.10859,-9.40265 0.9304,0.0229 -0.9304,-0.0229 m -26.16327,13.1327 2.22125,1.70101 -2.22125,-1.70101 m 7.8469,-3.6648 1.65049,3.33689 1.12092,-0.52355 -2.77141,-2.81334 m 26.90367,-12.56505 -0.5709,1.63578 0.5709,-1.63578 m -23.56139,13.74252 1.67109,0.58879 -1.67109,-0.58879 m 30.26649,-14.13566 0.5502,1.11232 -2.8128,2.68286 2.2626,-3.79518 m 8.968,-4.18836 -1.7331,7.65573 10.0888,-4.71189 0.5502,1.11224 -2.2627,3.79528 3.9338,-3.2065 -10.577,-4.64486 m -12.9017,7.39485 0.5502,1.11224 -3.363,1.57063 2.8128,-2.68287 m 9.518,-3.07611 1.6712,0.58888 -1.6712,-0.58888 m 5.6049,-2.61771 1.6712,0.58888 0.5502,1.11223 -0.5708,1.63587 -1.121,0.52354 -1.6712,-0.58877 -0.5501,-1.11224 1.6917,-2.15951 m -39.80521,19.95998 -0.57087,1.63577 0.57087,-1.63577 m -1.6919,2.15932 -0.57076,1.63587 0.57076,-1.63587 m 16.81481,-7.85315 -0.021,2.7481 0.021,-2.7481 m 5.6049,-2.61772 0.5089,6.60855 1.1209,-0.52355 -1.6298,-6.085 m 12.3039,-2.09453 -0.011,0.91562 0.011,-0.91562 m -34.19405,16.42584 -0.57088,1.63586 0.57088,-1.63586 m -4.50463,4.84228 -0.57087,1.63597 0.57087,-1.63597 m 12.33078,-5.75898 -0.5708,1.63596 0.5708,-1.63596 m 41.4765,-19.3711 -0.5708,1.63596 0.5708,-1.63596 m 4.484,-2.09418 -0.5708,1.63597 0.5708,-1.63597 m -49.89422,24.67188 2.22132,1.70101 -2.22132,-1.70101 m 28.02472,-13.08859 4.4426,3.40213 -3.9132,0.45831 -0.5294,-3.86044 m 6.155,-1.50548 2.7715,2.81344 -1.1209,0.52355 -1.6506,-3.33699 m 4.484,-2.09418 -0.5709,1.63588 0.5709,-1.63588 m 8.9678,-4.18835 -0.5707,1.63588 0.5707,-1.63588 m -33.0794,16.81863 -0.5709,1.63588 0.5709,-1.63588 m -1.6918,2.15943 -0.5709,1.63587 0.5709,-1.63587 m -6.1758,4.25359 -0.5708,1.63577 0.5708,-1.63577 m 19.607,-7.78801 -0.5708,1.63587 0.5708,-1.63587 m -0.021,2.7482 -1.1416,3.27174 1.1416,-3.27174 m -6.1758,4.25349 -0.5707,1.63598 0.5707,-1.63598 m 2.7922,0.0654 3.3422,1.17747 0.5503,1.11234 -3.8925,-2.28981 m 11.3931,-4.86511 c 0.8665,-0.4047 0.4533,0.47026 -0.1896,0.54591 l 0.1896,-0.54591 m -3.3837,4.31873 0.5571,0.19724 c -0.4624,0.44055 -1.4236,0.20747 -0.5571,-0.19724 m -8.6009,4.93035 -0.5708,1.63588 0.5708,-1.63588 m 14.002,-5.17019 1.1003,2.22457 -3.3423,-1.17748 2.242,-1.04709 m 2.4252,-0.67675 0.557,0.19713 c -0.4624,0.44055 -1.4235,0.20757 -0.557,-0.19713 m -6.9299,5.51904 -0.5707,1.63587 0.5707,-1.63587 m 3.9132,-0.45831 -0.5709,1.63578 0.5709,-1.63578 m -1.6918,2.15932 -1.1416,3.27175 -1.1005,-2.22467 z"
       id="path193" />
    <text
       xml:space="preserve"
       id="text247"
       style="fill:#002fa7;stroke:#002fa7;stroke-width:0.93026646;-inkscape-stroke:none;stop-color:#000000;white-space:pre;shape-inside:url(#rect249)" />
    <text
       xml:space="preserve"
       id="text253"
       style="fill:#002fa7;stroke:#002fa7;stroke-width:0.93026646;-inkscape-stroke:none;stop-color:#000000;white-space:pre;shape-inside:url(#rect255)" />
    <text
       xml:space="preserve"
       id="text259"
       style="fill:#002fa7;stroke:#002fa7;stroke-width:0.93026646;-inkscape-stroke:none;stop-color:#000000;white-space:pre;shape-inside:url(#rect261)" />
    <text
       xml:space="preserve"
       id="text265"
       style="white-space:pre;shape-inside:url(#rect267);fill:#002fa7;stroke:#002fa7;stroke-width:0.930266;-inkscape-stroke:none;stop-color:#000000;font-size:37.33333333px;-inkscape-font-specification:'DejaVu Math TeX Gyre';font-family:'DejaVu Math TeX Gyre';font-weight:normal;font-style:normal;font-stretch:normal;font-variant:normal" />
  </g>
</svg>
